<svg xmlns="http://www.w3.org/2000/svg" xmlns:xlink="http://www.w3.org/1999/xlink" width="550" height="235" version="1.1" viewBox="0 0 550 235"><title>grid</title><desc>Created with Sketch.</desc><defs><rect id="path-1" width="315" height="188" x="0" y="0"/><rect id="path-3" width="127" height="168" x="0" y="0"/><rect id="path-5" width="127" height="168" x="0" y="0"/><rect id="path-7" width="67" height="113" x="0" y="0"/></defs><g id="Page-1" fill="none" fill-rule="evenodd" stroke="none" stroke-width="1"><g id="grid"><g id="Group-21"><rect id="Rectangle-4" width="351" height="234" x="11.5" y=".5" fill="#E6F2FF" fill-rule="nonzero" stroke="#096AD0" rx="10"/><circle id="Oval-3" cx="187.5" cy="10.5" r="2" fill="#E6F2FF" fill-rule="nonzero" stroke="#096AD0"/><g id="Group-36" transform="translate(27.000000, 20.000000)"><rect id="Rectangle-path" width="316" height="189" x=".5" y=".5" stroke="#096AD0"/><rect id="Rectangle-path" width="316" height="189" x=".5" y=".5" stroke="#096AD0"/><g id="Group-35-Clipped" transform="translate(1.000000, 1.000000)"><mask id="mask-2" fill="#fff"><use xlink:href="#path-1"/></mask><use id="path-3" fill="#FFF" xlink:href="#path-1"/><g id="Group-35" mask="url(#mask-2)"><g id="Group"><g transform="translate(25.000000, -3.000000)"><rect id="Rectangle-17" width="17" height="192" x=".5" y=".5" stroke="#E6F2FF"/><rect id="Rectangle-17-Copy" width="17" height="192" x="22.5" y=".5" stroke="#E6F2FF"/><rect id="Rectangle-17-Copy-2" width="17" height="192" x="46.5" y=".5" stroke="#E6F2FF"/><rect id="Rectangle-17-Copy-3" width="17" height="192" x="69.5" y=".5" stroke="#E6F2FF"/><rect id="Rectangle-17-Copy-4" width="17" height="192" x="92.5" y=".5" stroke="#E6F2FF"/><rect id="Rectangle-17-Copy-5" width="17" height="192" x="115.5" y=".5" stroke="#E6F2FF"/><rect id="Rectangle-17-Copy-6" width="17" height="192" x="137.5" y=".5" stroke="#E6F2FF"/><rect id="Rectangle-17-Copy-7" width="17" height="192" x="160.5" y=".5" stroke="#E6F2FF"/><rect id="Rectangle-17-Copy-8" width="17" height="192" x="183.5" y=".5" stroke="#E6F2FF"/><rect id="Rectangle-17-Copy-9" width="17" height="192" x="206.5" y=".5" stroke="#E6F2FF"/><rect id="Rectangle-17-Copy-10" width="17" height="192" x="228.5" y=".5" stroke="#E6F2FF"/><rect id="Rectangle-17-Copy-11" width="17" height="192" x="251.5" y=".5" stroke="#E6F2FF"/></g></g></g></g></g><path id="Rectangle-4" fill="#E6F2FF" fill-rule="nonzero" stroke="#096AD0" d="M0.512932059,225.5 C0.772938519,230.514282 4.92101214,234.5 10,234.5 L342,234.5 C347.078988,234.5 351.227061,230.514282 351.487068,225.5 L0.512932059,225.5 Z"/></g><g id="Group-34" transform="translate(338.000000, 32.000000)"><rect id="Rectangle-4-Copy-6" width="155" height="202" x=".5" y=".5" fill="#E6F2FF" fill-rule="nonzero" stroke="#096AD0" rx="10"/><circle id="Oval-3" cx="78" cy="195" r="4.5" fill="#E6F2FF" fill-rule="nonzero" stroke="#096AD0"/><circle id="Oval-3" cx="78" cy="8" r="1.5" fill="#E6F2FF" fill-rule="nonzero" stroke="#096AD0"/><rect id="Rectangle-path" width="128" height="169" x="14.5" y="17.5" stroke="#096AD0"/><g id="Group-37-Clipped" transform="translate(15.000000, 18.000000)"><mask id="mask-4" fill="#fff"><use xlink:href="#path-3"/></mask><g id="Group-37" mask="url(#mask-4)"><g id="Group"><g transform="translate(-1.000000, -1.000000)"><rect id="Rectangle-path" width="128" height="169" x=".5" y=".5" stroke="#096AD0"/><g id="grid-Clipped" transform="translate(1.000000, 1.000000)"><mask id="mask-6" fill="#fff"><use xlink:href="#path-5"/></mask><use id="path-7" fill="#FFF" xlink:href="#path-5"/><g id="grid" mask="url(#mask-6)"><g id="Group"><g transform="translate(9.000000, -5.000000)"><rect id="Rectangle-17-Copy" width="14" height="192" x=".5" y=".5" stroke="#E6F2FF"/><rect id="Rectangle-17-Copy-2" width="14" height="192" x="19.5" y=".5" stroke="#E6F2FF"/><rect id="Rectangle-17-Copy-3" width="14" height="192" x="38.5" y=".5" stroke="#E6F2FF"/><rect id="Rectangle-17-Copy-4" width="14" height="192" x="57.5" y=".5" stroke="#E6F2FF"/><rect id="Rectangle-17-Copy-5" width="14" height="192" x="76.5" y=".5" stroke="#E6F2FF"/><rect id="Rectangle-17-Copy-6" width="14" height="192" x="95.5" y=".5" stroke="#E6F2FF"/></g></g></g></g></g></g></g></g></g><g id="Group-33" transform="translate(466.000000, 102.000000)"><rect id="Rectangle-4-Copy-7" width="83" height="132" x=".5" y=".5" fill="#E6F2FF" fill-rule="nonzero" stroke="#096AD0" rx="10"/><circle id="Oval-3" cx="42" cy="5" r="1.5" fill="#E6F2FF" fill-rule="nonzero" stroke="#096AD0"/><g id="Group-38" transform="translate(8.000000, 9.000000)"><rect id="Rectangle-path" width="68" height="114" x=".5" y=".5" stroke="#096AD0"/><g id="Group-35-Clipped" transform="translate(1.000000, 1.000000)"><mask id="mask-8" fill="#fff"><use xlink:href="#path-7"/></mask><use id="path-9" fill="#FFF" xlink:href="#path-7"/><g id="Group-35" mask="url(#mask-8)"><g id="Group"><g transform="translate(5.000000, -37.000000)"><rect id="Rectangle-17-Copy" width="11" height="177" x=".5" y=".5" stroke="#E6F2FF"/><rect id="Rectangle-17-Copy-2" width="11" height="177" x="15.5" y=".5" stroke="#E6F2FF"/><rect id="Rectangle-17-Copy-3" width="11" height="177" x="30.5" y=".5" stroke="#E6F2FF"/><rect id="Rectangle-17-Copy-4" width="11" height="177" x="45.5" y=".5" stroke="#E6F2FF"/></g></g></g></g></g></g></g></g></svg>