<svg xmlns="http://www.w3.org/2000/svg" xmlns:xlink="http://www.w3.org/1999/xlink" width="491" height="351" version="1.1" viewBox="0 0 491 351"><title>mac 2</title><desc>Created with Sketch.</desc><defs><path id="path-1" d="M15.9674135,0.96747981 L491,0 L491,352 L0,352 L3.55271368e-15,16.9674466 C2.47210581e-15,8.14361377 7.14359896,0.985450919 15.9674135,0.96747981 Z"/></defs><g id="landing-page" fill="none" fill-rule="evenodd" stroke="none" stroke-width="1"><g id="Extra-large:-Desktops---12-col" transform="translate(-784.000000, -5413.000000)"><g id="Group-42-Copy" transform="translate(0.000000, 4708.000000)"><g id="Group-17" transform="translate(165.000000, 231.000000)"><g id="mac-2" transform="translate(619.000000, 473.000000)"><path id="path-1" fill-rule="nonzero" d="M15.9674135,0.96747981 L491,0 L491,352 L0,352 L3.55271368e-15,16.9674466 C2.47210581e-15,8.14361377 7.14359896,0.985450919 15.9674135,0.96747981 Z"/><g id="mac-Clipped"><mask id="mask-2" fill="#fff"><use xlink:href="#path-1"/></mask><g id="mac" mask="url(#mask-2)"><g id="Group"><g transform="translate(0.000000, 1.000000)"><path id="Combined-Shape" stroke="#FFF" d="M16,1 C7.71572875,1 1,7.71572875 1,16 L1,686 C1,694.284271 7.71572862,701 16,701 L686,701 C694.284272,701 701,694.284272 701,686 L701,16 C701,7.71572862 694.284271,1 686,1 L16,1 Z"/><g id="Group-23" stroke="#FFF" transform="translate(34.000000, 29.000000)"><rect id="Rectangle-path" width="635" height="465" x="1" y=".5" fill="#E6F2FF" fill-opacity=".1" rx="3"/><g id="Group-32-Clipped" fill="#096AD0" fill-rule="nonzero" transform="translate(10.000000, 12.000000)"><g id="Group-32" transform="translate(-0.000000, 0.000000)"><g id="Group" transform="translate(0.136691, 0.196721)"><ellipse id="Oval" cx="4.568" cy="4.574" rx="3.568" ry="3.574"/><ellipse id="Oval-Copy" cx="22.842" cy="4.574" rx="3.568" ry="3.574"/><ellipse id="Oval-Copy-2" cx="41.115" cy="4.574" rx="3.568" ry="3.574"/></g></g></g><path id="Path" fill="#E6F2FF" d="M1,33 L459.529628,33"/></g><circle id="Oval-2" cx="351.5" cy="15.5" r="4.5" stroke="#FFF"/></g></g></g></g></g></g></g></g></g></svg>