<svg xmlns="http://www.w3.org/2000/svg" xmlns:xlink="http://www.w3.org/1999/xlink" width="206" height="353" version="1.1" viewBox="0 0 206 353"><title>Group 24</title><desc>Created with Sketch.</desc><defs><rect id="path-1" width="206" height="353" x="0" y="0"/></defs><g id="landing-page" fill="none" fill-rule="evenodd" stroke="none" stroke-width="1"><g id="Extra-large:-Desktops---12-col" transform="translate(-450.000000, -5224.000000)"><g id="Group-42-Copy" transform="translate(0.000000, 4708.000000)"><g id="Group-17" transform="translate(165.000000, 231.000000)"><g id="Group-15" transform="translate(285.000000, 285.000000)"><g id="Group-24"><mask id="mask-2" fill="#fff"><use xlink:href="#path-1"/></mask><rect id="Rectangle-10-Copy-5" width="348" height="706" x="-142.5" y="-353.5" stroke="#FFF" mask="url(#mask-2)" rx="49.3"/><rect id="Rectangle-13" width="5" height="4.099" x="200.5" y="280.421" stroke="#FFF" mask="url(#mask-2)"/><path id="Combined-Shape" fill="#E6F2FF" fill-opacity=".1" stroke="#FFF" d="M-56.3014473,-330.206731 C-56.3014473,-332.746444 -58.3602917,-334.805288 -60.900005,-334.805288 L-93.6292683,-334.805288 C-110.277478,-334.805288 -123.773171,-321.332742 -123.773171,-304.713942 L-123.773171,303.713942 C-123.773171,320.332742 -110.277478,333.805288 -93.6292683,333.805288 L156.629268,333.805288 C173.277478,333.805288 186.773171,320.332742 186.773171,303.713942 L186.773171,-304.713942 C186.773171,-321.332742 173.277478,-334.805288 156.629268,-334.805288 L122.188212,-334.805288 C119.648499,-334.805288 117.589654,-332.746444 117.589654,-330.206731 C117.589654,-318.666973 108.21911,-309.3125 96.660386,-309.3125 L-35.372179,-309.3125 C-46.9309028,-309.3125 -56.3014473,-318.666973 -56.3014473,-330.206731 Z" mask="url(#mask-2)"/><rect id="Rectangle-10-Copy-5" width="337.785" height="695.803" x="-137.393" y="-348.401" stroke="#FFF" mask="url(#mask-2)" rx="44.2"/></g></g></g></g></g></g></svg>